<?xml version="1.0" encoding="UTF-8"?>
<!-- 236 unit squares in a square of side 15.86395574715926775170063985812217401917877662539142, drawn from the certificate n236_perturbed.cert50.txt (SQUISH) -->
<svg xmlns="http://www.w3.org/2000/svg" xmlns:xlink="http://www.w3.org/1999/xlink" width="100%" height="100%" viewBox="-7.93197787357963387585031992906108700958938831269571 -7.93197787357963387585031992906108700958938831269571 15.86395574715926775170063985812217401917877662539142 15.86395574715926775170063985812217401917877662539142" style="fill:#B2B2B2; stroke:black; stroke-width:0.0238">
  <defs><rect id="one" width="1" height="1"/></defs>
  <rect x="-7.93197787357963387585031992906108700958938831269571" y="-7.93197787357963387585031992906108700958938831269571" width="15.86395574715926775170063985812217401917877662539142" height="15.86395574715926775170063985812217401917877662539142" style="fill:white; stroke:none"/>
  <g transform="scale(1 -1)">
    <use xlink:href="#one" transform="translate(-1.63951077725534818566468026976083252664751973212422 -2.85059446621989706031222688436819671951415712549076) rotate(-38.088267376017974595570063763353582115068056860407283) translate(-.5 -.5)"/>
    <use xlink:href="#one" transform="translate(-1.57680533869685594343995788098105800995208738548739 -7.43197787357963387585031992906108700958938831269571) rotate(0.0) translate(-.5 -.5)"/>
    <use xlink:href="#one" transform="translate(-2.57680533869685594343995788098106800995208738548795 -7.43197787357963387585031992906108700958938831269571) rotate(0.0) translate(-.5 -.5)"/>
    <use xlink:href="#one" transform="translate(-3.57680533869685594343995788098107800995208738548851 -7.43197787357963387585031992906108700958938831269571) rotate(0.0) translate(-.5 -.5)"/>
    <use xlink:href="#one" transform="translate(-4.57680533869685594343995788098108800995208738548907 -7.43197787357963387585031992906108700958938831269571) rotate(0.0) translate(-.5 -.5)"/>
    <use xlink:href="#one" transform="translate(-1.56968593666618763848304477703128344538740075922213 -4.43197787357963387585031992906105700958938831269403) rotate(0.0) translate(-.5 -.5)"/>
    <use xlink:href="#one" transform="translate(-2.56802212642036612414968007093901299041061168730989 -6.43197787357963387585031992906107700958938831269515) rotate(0.0) translate(-.5 -.5)"/>
    <use xlink:href="#one" transform="translate(-3.56802212642036612414968007093902299041061168731045 -6.43197787357963387585031992906107700958938831269515) rotate(0.0) translate(-.5 -.5)"/>
    <use xlink:href="#one" transform="translate(-1.56802212642036612414968007093900299041061168730933 -6.43197787357963387585031992906107700958938831269515) rotate(0.0) translate(-.5 -.5)"/>
    <use xlink:href="#one" transform="translate(-2.56802212642036612414968007093901299041061168730989 -5.43197787357963387585031992906106700958938831269459) rotate(0.0) translate(-.5 -.5)"/>
    <use xlink:href="#one" transform="translate(-1.56802212642036612414968007093900299041061168730933 -5.43197787357963387585031992906106700958938831269459) rotate(0.0) translate(-.5 -.5)"/>
    <use xlink:href="#one" transform="translate(-7.43197787357963387585031992906108700958938831269571 -2.56817104310289846885301263735452283454239551373216) rotate(0.0) translate(-.5 -.5)"/>
    <use xlink:href="#one" transform="translate(-6.43197787357963387585031992906107700958938831269515 -2.56816150933586337392292637281468491783634823770925) rotate(0.0) translate(-.5 -.5)"/>
    <use xlink:href="#one" transform="translate(-5.43197787357963387585031992906106700958938831269459 -2.60483036889391480535623228271613821061304293696023) rotate(0.0) translate(-.5 -.5)"/>
    <use xlink:href="#one" transform="translate(-4.43197787357963387585031992906105700958938831269403 -2.56802212642036612414968007093901299041061168730989) rotate(0.0) translate(-.5 -.5)"/>
    <use xlink:href="#one" transform="translate(-7.43197787357963387585031992906108700958938831269571 -3.56817104310289846885301263735453283454239551373272) rotate(0.0) translate(-.5 -.5)"/>
    <use xlink:href="#one" transform="translate(-6.43197787357963387585031992906107700958938831269515 -3.56816150933586337392292637281469491783634823770981) rotate(0.0) translate(-.5 -.5)"/>
    <use xlink:href="#one" transform="translate(-5.43108915172870573336312842029196143504599957028300 -3.61455608453576412493775675157749625466278788240269) rotate(9.3390537653235908285488490476161173562497510385020947e-2) translate(-.5 -.5)"/>
    <use xlink:href="#one" transform="translate(-7.43197787357963387585031992906108700958938831269571 -4.56817104310289846885301263735454283454239551373328) rotate(0.0) translate(-.5 -.5)"/>
    <use xlink:href="#one" transform="translate(-6.43197787357963387585031992906107700958938831269515 -4.56816150933586337392292637281470491783634823771037) rotate(0.0) translate(-.5 -.5)"/>
    <use xlink:href="#one" transform="translate(-7.43197787357963387585031992906108700958938831269571 -5.56817104310289846885301263735455283454239551373384) rotate(0.0) translate(-.5 -.5)"/>
    <use xlink:href="#one" transform="translate(-7.43197787357963387585031992906108700958938831269571 -7.43197787357963387585031992906108700958938831269571) rotate(0.0) translate(-.5 -.5)"/>
    <use xlink:href="#one" transform="translate(-3.04565274065299837036424348814416322982327103154901 -2.77484996358772718735371803355833891095134654628937) rotate(-43.390585409434920135570047719441523899811364517823270) translate(-.5 -.5)"/>
    <use xlink:href="#one" transform="translate(-3.76087095454593974400910090873873266955321410226265 -3.56918822167528580723584515479393937362239605294597) rotate(38.088267376017974595570063763353582115068056860407283) translate(-.5 -.5)"/>
    <use xlink:href="#one" transform="translate(-4.42005759452626146431371849179021026657436217378560 -4.34921640756951362117683662645846185778493457025154) rotate(38.088267376017974595570063763353582115068056860407283) translate(-.5 -.5)"/>
    <use xlink:href="#one" transform="translate(-5.23000983511834073979224366003305176290095548972658 -4.93688498686327527754140322912288520250581285307932) rotate(38.088267376017974595570063763353582115068056860407283) translate(-.5 -.5)"/>
    <use xlink:href="#one" transform="translate(-5.96705057177896399065629627726249546821732414733148 -5.72443502168923779997307761774730352649148740254749) rotate(37.406846495565088208251839725138410313183019368720591) translate(-.5 -.5)"/>
    <use xlink:href="#one" transform="translate(-6.64792304463203958797788598944636254217714587602054 -6.48039991562393374886503950979669408090585930417946) rotate(37.420055317328234649454395080823842974326471881812225) translate(-.5 -.5)"/>
    <use xlink:href="#one" transform="translate(-2.28684140864112348034419425936368003506538677120094 -2.05543937379099093283078201412178365364460773954440) rotate(-38.088267376017974595570063763353582115068056860407283) translate(-.5 -.5)"/>
    <use xlink:href="#one" transform="translate(-3.14230545409931850248671994146066593280603044929596 -4.35492439655071943681691021407633023032425265655515) rotate(38.088267376017974595570063763353582115068056860407283) translate(-.5 -.5)"/>
    <use xlink:href="#one" transform="translate(-3.79101322350265997947489919208537093346605228780087 -5.14968164845119832414029330002678830576306001274548) rotate(38.219744628673062432162458559282820985367064051938067) translate(-.5 -.5)"/>
    <use xlink:href="#one" transform="translate(-4.61313511589425024127515839478403149625856908331824 -5.72394634456177105114047050192990542924029209260758) rotate(38.088267376017974595570063763353582115068056860407283) translate(-.5 -.5)"/>
    <use xlink:href="#one" transform="translate(-5.30246438093798621931881604418611541813644567201988 -6.47509820155522659144356985439601142164842874968623) rotate(37.406846495565088208251839725138410313183019368720591) translate(-.5 -.5)"/>
    <use xlink:href="#one" transform="translate(-5.98334691029011324984808584877239000499533277093609 -7.23104995167280485812494593953972752466564633937870) rotate(37.420055317328234649454395080823842974326471881812225) translate(-.5 -.5)"/>
    <use xlink:href="#one" transform="translate(-1.43197787357963387585031992906102700958938831269235 4.43197787357963387585031992906105700958938831269403) rotate(0.0) translate(-.5 -.5)"/>
    <use xlink:href="#one" transform="translate(-1.43197787357963387585031992906102700958938831269235 3.43197787357963387585031992906104700958938831269347) rotate(0.0) translate(-.5 -.5)"/>
    <use xlink:href="#one" transform="translate(-1.43197787357963387585031992906102700958938831269235 2.43197787357963387585031992906103700958938831269291) rotate(0.0) translate(-.5 -.5)"/>
    <use xlink:href="#one" transform="translate(-0.43197787357963387585031992906101700958938831269179 5.43197787357963387585031992906106700958938831269459) rotate(0.0) translate(-.5 -.5)"/>
    <use xlink:href="#one" transform="translate(-0.43197787357963387585031992906101700958938831269179 4.43197787357963387585031992906105700958938831269403) rotate(0.0) translate(-.5 -.5)"/>
    <use xlink:href="#one" transform="translate(0.56802212642036612414968007093899299041061168730877 5.43197787357963387585031992906106700958938831269459) rotate(0.0) translate(-.5 -.5)"/>
    <use xlink:href="#one" transform="translate(1.71088052305740527240315359181106186686601662134782 4.43197787357963387585031992906105700958938831269403) rotate(0.0) translate(-.5 -.5)"/>
    <use xlink:href="#one" transform="translate(-0.78659264279033913154705992850151170964776513420547 -2.23000133125886808040501510419042367519467142885507) rotate(-38.093995631405563561409065169644532855830676886994476) translate(-.5 -.5)"/>
    <use xlink:href="#one" transform="translate(4.46440062039894862855932829436235722873658540443473 4.31422456969852336646659534398844647903983160108125) rotate(-44.675092088874681687865235984991149154583426075558664) translate(-.5 -.5)"/>
    <use xlink:href="#one" transform="translate(1.43197787357963387585031992906102700958938831269235 0.56802212642036612414968007093899299041061168730877) rotate(0.0) translate(-.5 -.5)"/>
    <use xlink:href="#one" transform="translate(4.43197787357963387585031992906105700958938831269403 -3.43197787357963387585031992906104700958938831269347) rotate(0.0) translate(-.5 -.5)"/>
    <use xlink:href="#one" transform="translate(5.43197787357963387585031992906106700958938831269459 -0.43197787357963387585031992906101700958938831269179) rotate(0.0) translate(-.5 -.5)"/>
    <use xlink:href="#one" transform="translate(4.43197787357963387585031992906105700958938831269403 0.56802212642036612414968007093899299041061168730877) rotate(0.0) translate(-.5 -.5)"/>
    <use xlink:href="#one" transform="translate(4.43197787357963387585031992906105700958938831269403 1.56802212642036612414968007093900299041061168730933) rotate(0.0) translate(-.5 -.5)"/>
    <use xlink:href="#one" transform="translate(4.43197787357963387585031992906105700958938831269403 2.56802212642036612414968007093901299041061168730989) rotate(0.0) translate(-.5 -.5)"/>
    <use xlink:href="#one" transform="translate(3.43197787357963387585031992906104700958938831269347 -1.43197787357963387585031992906102700958938831269235) rotate(0.0) translate(-.5 -.5)"/>
    <use xlink:href="#one" transform="translate(3.43197787357963387585031992906104700958938831269347 -0.43197787357963387585031992906101700958938831269179) rotate(0.0) translate(-.5 -.5)"/>
    <use xlink:href="#one" transform="translate(4.43197787357963387585031992906105700958938831269403 -0.43197787357963387585031992906101700958938831269179) rotate(0.0) translate(-.5 -.5)"/>
    <use xlink:href="#one" transform="translate(3.43197787357963387585031992906104700958938831269347 0.56802212642036612414968007093899299041061168730877) rotate(0.0) translate(-.5 -.5)"/>
    <use xlink:href="#one" transform="translate(2.43197787357963387585031992906103700958938831269291 -1.43197787357963387585031992906102700958938831269235) rotate(0.0) translate(-.5 -.5)"/>
    <use xlink:href="#one" transform="translate(3.43197787357963387585031992906104700958938831269347 1.56802212642036612414968007093900299041061168730933) rotate(0.0) translate(-.5 -.5)"/>
    <use xlink:href="#one" transform="translate(2.43197787357963387585031992906103700958938831269291 0.56802212642036612414968007093899299041061168730877) rotate(0.0) translate(-.5 -.5)"/>
    <use xlink:href="#one" transform="translate(2.43197787357963387585031992906103700958938831269291 1.56802212642036612414968007093900299041061168730933) rotate(0.0) translate(-.5 -.5)"/>
    <use xlink:href="#one" transform="translate(1.43197787357963387585031992906102700958938831269235 -1.43197787357963387585031992906102700958938831269235) rotate(0.0) translate(-.5 -.5)"/>
    <use xlink:href="#one" transform="translate(2.43197787357963387585031992906103700958938831269291 -0.43197787357963387585031992906101700958938831269179) rotate(0.0) translate(-.5 -.5)"/>
    <use xlink:href="#one" transform="translate(0.43197787357963387585031992906101700958938831269179 -1.43197787357963387585031992906102700958938831269235) rotate(0.0) translate(-.5 -.5)"/>
    <use xlink:href="#one" transform="translate(3.75959301416631117013968653607749711859662294800606 3.60482193221398200484090833182475532268518826290614) rotate(-44.675092088874681687865235984991149154583426075558664) translate(-.5 -.5)"/>
    <use xlink:href="#one" transform="translate(3.17645935365931077074733363162179462812730359069475 2.77511753842671616588014289128935415333422571120479) rotate(-44.675092088874681687865235984991149154583426075558664) translate(-.5 -.5)"/>
    <use xlink:href="#one" transform="translate(2.96639904297772837750613988925032424832810134334709 4.22488246157328383411985710871071584666577428879912) rotate(-44.675092088874681687865235984991149154583426075558664) translate(-.5 -.5)"/>
    <use xlink:href="#one" transform="translate(2.38326538247072797811378698479462175785878198603578 3.39517806778601799515909166817531467731481173709778) rotate(-44.675092088874681687865235984991149154583426075558664) translate(-.5 -.5)"/>
    <use xlink:href="#one" transform="translate(1.73386524518288941599865183737605814336063068176677 2.54802196923787319891004546487585001039340450752047) rotate(38.088267376017974595570063763353582115068056860407283) translate(-.5 -.5)"/>
    <use xlink:href="#one" transform="translate(1.07142466682554076024785501753690785741921489486806 3.29937019442885137465549300518775414874678081595700) rotate(38.088267376017974595570063763353582115068056860407283) translate(-.5 -.5)"/>
    <use xlink:href="#one" transform="translate(0.36590026380446881137340879197703165713551648735397 2.52545486494533719503763772186915878079793323003026) rotate(43.434239156527019298367531052140702382725525202448943) translate(-.5 -.5)"/>
    <use xlink:href="#one" transform="translate(1.02762294212844629596282407674100635216176978812311 1.77486488958681325625604664600008987306898362555198) rotate(43.434239156527019298367531052140702382725525202448943) translate(-.5 -.5)"/>
    <use xlink:href="#one" transform="translate(0.26457697134856915572238491161240578491335296431756 1.02703250656532153553203888506721761068862755006642) rotate(-38.088267376017974595570063763353582115068056860407283) translate(-.5 -.5)"/>
    <use xlink:href="#one" transform="translate(-0.40838134118961655026303513564658751415407877560230 1.78948961852284286896241943731814514013118453733902) rotate(-38.088267376017974595570063763353582115068056860407283) translate(-.5 -.5)"/>
    <use xlink:href="#one" transform="translate(-0.61760153979702927551137103747212701170877728367756 -0.82264079322487994790791419715179315479918329794316) rotate(-38.088267376017974595570063763353582115068056860407283) translate(-.5 -.5)"/>
    <use xlink:href="#one" transform="translate(-1.40466289749552504911043831027914723844325652320581 -0.20576607400078944939082893190277288815679689153482) rotate(-38.088267376017974595570063763353582115068056860407283) translate(-.5 -.5)"/>
    <use xlink:href="#one" transform="translate(0.23000983511834073979224366003300176290095548972378 -0.21642379829687739240463000993258683389850454340044) rotate(-38.088267376017974595570063763353582115068056860407283) translate(-.5 -.5)"/>
    <use xlink:href="#one" transform="translate(-0.56968593666618763848304477703127344538740075922157 -4.43197787357963387585031992906105700958938831269403) rotate(0.0) translate(-.5 -.5)"/>
    <use xlink:href="#one" transform="translate(-1.23000983511834073979224366003301176290095548972434 1.16290803288473443954283580756736096218643885028049) rotate(-38.088267376017974595570063763353582115068056860407283) translate(-.5 -.5)"/>
    <use xlink:href="#one" transform="translate(7.43075586950426317748834011443609970572526014912700 7.43125977486829062350052739889725964301102238733344) rotate(2.7057023091681707279134626291794729036777276733014896e-2) translate(-.5 -.5)"/>
    <use xlink:href="#one" transform="translate(7.43086635011493915562978403477048404311164810472761 5.56817103729545995697817746871551503494116166674027) rotate(-2.2205216254006736629437344811062957148581669561782848e-3) translate(-.5 -.5)"/>
    <use xlink:href="#one" transform="translate(2.56802212642036612414968007093901299041061168730989 7.43197787357963387585031992906108700958938831269571) rotate(0.0) translate(-.5 -.5)"/>
    <use xlink:href="#one" transform="translate(5.95662362063482878575241815166832248650277200954481 7.21561703129384871495103910976699289690210674777416) rotate(37.724272987642928073469943652401027273093112115053010) translate(-.5 -.5)"/>
    <use xlink:href="#one" transform="translate(3.56802237056299401622409535650867263128084069176910 7.43197787357963387585031992906108700958938831269571) rotate(0.0) translate(-.5 -.5)"/>
    <use xlink:href="#one" transform="translate(7.43197787357963387585031992906108700958938831269571 3.56804583949249068900981259242534794659400567306909) rotate(0.0) translate(-.5 -.5)"/>
    <use xlink:href="#one" transform="translate(6.64712988344036707026289408566693514844912421920136 6.48119514599070304320930775949859570881350823128935) rotate(37.835300377693974572480707319901351213086662123746116) translate(-.5 -.5)"/>
    <use xlink:href="#one" transform="translate(4.56802285885021267468046320572174885738253170385190 7.42938691431813628078243967950090686974807410202249) rotate(-4.1965368601002384481981312220780739187217405074320652e-5) translate(-.5 -.5)"/>
    <use xlink:href="#one" transform="translate(6.43197787357963387585031992906107700958938831269515 4.56802237056299401622409535630594537863898666855162) rotate(0.0) translate(-.5 -.5)"/>
    <use xlink:href="#one" transform="translate(-1.43197787357963387585031992906102700958938831269235 7.43197787357963387585031992906108700958938831269571) rotate(0.0) translate(-.5 -.5)"/>
    <use xlink:href="#one" transform="translate(-0.43197787357963387585031992906101700958938831269179 7.43197787357963387585031992906108700958938831269571) rotate(0.0) translate(-.5 -.5)"/>
    <use xlink:href="#one" transform="translate(0.56802212642036612414968007093899299041061168730877 7.43197787357963387585031992906108700958938831269571) rotate(0.0) translate(-.5 -.5)"/>
    <use xlink:href="#one" transform="translate(1.56802212642036612414968007093900299041061168730933 7.43197787357963387585031992906108700958938831269571) rotate(0.0) translate(-.5 -.5)"/>
    <use xlink:href="#one" transform="translate(7.43197787357963387585031992906108700958938831269571 -1.43197787357963387585031992906102700958938831269235) rotate(0.0) translate(-.5 -.5)"/>
    <use xlink:href="#one" transform="translate(7.43197787357963387585031992906108700958938831269571 0.56802212642036612414968007093899299041061168730877) rotate(0.0) translate(-.5 -.5)"/>
    <use xlink:href="#one" transform="translate(7.43197787357963387585031992906108700958938831269571 -0.43197787357963387585031992906101700958938831269179) rotate(0.0) translate(-.5 -.5)"/>
    <use xlink:href="#one" transform="translate(7.43197787357963387585031992906108700958938831269571 1.56802432380154091965933079186656928703929962287280) rotate(0.0) translate(-.5 -.5)"/>
    <use xlink:href="#one" transform="translate(7.43197787357963387585031992906108700958938831269571 2.56802628342733943959656502465014205356472597422108) rotate(0.0) translate(-.5 -.5)"/>
    <use xlink:href="#one" transform="translate(2.56802212642036612414968007093901299041061168730989 6.43197787357963387585031992906107700958938831269515) rotate(0.0) translate(-.5 -.5)"/>
    <use xlink:href="#one" transform="translate(3.56802212642036612414968007093902299041061168731045 6.43197787357963387585031992906107700958938831269515) rotate(0.0) translate(-.5 -.5)"/>
    <use xlink:href="#one" transform="translate(6.43197787357963387585031992906107700958938831269515 3.56802212642036612414968007093902299041061168731045) rotate(0.0) translate(-.5 -.5)"/>
    <use xlink:href="#one" transform="translate(5.27361638659270274224736825932248890277130065439434 6.45597308701025288605860881857424453970359389932743) rotate(37.835609028548533979983722400703452634537673378210501) translate(-.5 -.5)"/>
    <use xlink:href="#one" transform="translate(5.96610641725573690400933886663161929514215219866701 5.72762484463538560312527155386852530126316112120887) rotate(37.835812265878739307789375044043999596179173398784925) translate(-.5 -.5)"/>
    <use xlink:href="#one" transform="translate(7.43197787357963387585031992906108700958938831269571 4.56810837163450803536916540817515235659842304873267) rotate(0.0) translate(-.5 -.5)"/>
    <use xlink:href="#one" transform="translate(-0.43197787357963387585031992906101700958938831269179 6.43197787357963387585031992906107700958938831269515) rotate(0.0) translate(-.5 -.5)"/>
    <use xlink:href="#one" transform="translate(0.56802212642036612414968007093899299041061168730877 6.43197787357963387585031992906107700958938831269515) rotate(0.0) translate(-.5 -.5)"/>
    <use xlink:href="#one" transform="translate(1.56802212642036612414968007093900299041061168730933 6.43197787357963387585031992906107700958938831269515) rotate(0.0) translate(-.5 -.5)"/>
    <use xlink:href="#one" transform="translate(-1.43197787357963387585031992906102700958938831269235 6.43197787357963387585031992906107700958938831269515) rotate(0.0) translate(-.5 -.5)"/>
    <use xlink:href="#one" transform="translate(6.43197787357963387585031992906107700958938831269515 -1.43197787357963387585031992906102700958938831269235) rotate(0.0) translate(-.5 -.5)"/>
    <use xlink:href="#one" transform="translate(6.43197787357963387585031992906107700958938831269515 -0.43197787357963387585031992906101700958938831269179) rotate(0.0) translate(-.5 -.5)"/>
    <use xlink:href="#one" transform="translate(6.43197787357963387585031992906107700958938831269515 0.56802212642036612414968007093899299041061168730877) rotate(0.0) translate(-.5 -.5)"/>
    <use xlink:href="#one" transform="translate(6.43197787357963387585031992906107700958938831269515 1.56802212642036612414968007093900299041061168730933) rotate(0.0) translate(-.5 -.5)"/>
    <use xlink:href="#one" transform="translate(6.43197787357963387585031992906107700958938831269515 2.56802212642036612414968007093901299041061168730989) rotate(0.0) translate(-.5 -.5)"/>
    <use xlink:href="#one" transform="translate(5.42760280758747574118542874034337339666144737408567 3.57157422647723469203965836578673542421221080042925) rotate(-4.0440476909451750878133191810092894526617278183179464e-1) translate(-.5 -.5)"/>
    <use xlink:href="#one" transform="translate(4.53560366195202440885734744951072260969717683843967 5.69374182489383832740682873029597922109079642744458) rotate(-44.675092088874681687865235984991149154583426075558664) translate(-.5 -.5)"/>
    <use xlink:href="#one" transform="translate(2.56802212642036612414968007093901299041061168730989 5.43197787357963387585031992906106700958938831269459) rotate(0.0) translate(-.5 -.5)"/>
    <use xlink:href="#one" transform="translate(5.22488246157328383411985710871072584666577428879968 4.96858084368796256008650714175437909204134643719654) rotate(-44.675092088874681687865235984991149154583426075558664) translate(-.5 -.5)"/>
    <use xlink:href="#one" transform="translate(-1.43197787357963387585031992906102700958938831269235 5.43197787357963387585031992906106700958938831269459) rotate(0.0) translate(-.5 -.5)"/>
    <use xlink:href="#one" transform="translate(-0.43197787357963387585031992906101700958938831269179 3.43197787357963387585031992906104700958938831269347) rotate(0.0) translate(-.5 -.5)"/>
    <use xlink:href="#one" transform="translate(0.56802212642036612414968007093899299041061168730877 4.43197787357963387585031992906105700958938831269403) rotate(0.0) translate(-.5 -.5)"/>
    <use xlink:href="#one" transform="translate(1.56802212642036612414968007093900299041061168730933 5.43197787357963387585031992906106700958938831269459) rotate(0.0) translate(-.5 -.5)"/>
    <use xlink:href="#one" transform="translate(5.43197787357963387585031992906106700958938831269459 -1.43197787357963387585031992906102700958938831269235) rotate(0.0) translate(-.5 -.5)"/>
    <use xlink:href="#one" transform="translate(1.43197787357963387585031992906102700958938831269235 -0.43197787357963387585031992906101700958938831269179) rotate(0.0) translate(-.5 -.5)"/>
    <use xlink:href="#one" transform="translate(5.43197787357963387585031992906106700958938831269459 0.56802212642036612414968007093899299041061168730877) rotate(0.0) translate(-.5 -.5)"/>
    <use xlink:href="#one" transform="translate(5.43197787357963387585031992906106700958938831269459 1.56802628342733943959656502436062010134859482166894) rotate(0.0) translate(-.5 -.5)"/>
    <use xlink:href="#one" transform="translate(5.43197787357963387585031992906106700958938831269459 2.56804583949249068900981259383108807969779185122574) rotate(0.0) translate(-.5 -.5)"/>
    <use xlink:href="#one" transform="translate(3.77511753842671616588014289128936415333422571120535 5.03938978496075432712053108874483961224271686123966) rotate(-44.675092088874681687865235984991149154583426075558664) translate(-.5 -.5)"/>
    <use xlink:href="#one" transform="translate(-7.43197787357963387585031992906108700958938831269571 7.43187836133734994696324323623915592103404114965811) rotate(0.0) translate(-.5 -.5)"/>
    <use xlink:href="#one" transform="translate(-6.43197787357963387585031992906107700958938831269515 7.43187836133734994696324323623915592103404114965811) rotate(0.0) translate(-.5 -.5)"/>
    <use xlink:href="#one" transform="translate(-5.43197787357963387585031992906106700958938831269459 7.43197787357963387585031992906108700958938831269571) rotate(0.0) translate(-.5 -.5)"/>
    <use xlink:href="#one" transform="translate(-4.43197787357963387585031992906105700958938831269403 7.43197787357963387585031992906108700958938831269571) rotate(0.0) translate(-.5 -.5)"/>
    <use xlink:href="#one" transform="translate(-3.43197787357963387585031992906104700958938831269347 7.43197787357963387585031992906108700958938831269571) rotate(0.0) translate(-.5 -.5)"/>
    <use xlink:href="#one" transform="translate(-2.43197787357963387585031992906103700958938831269291 7.43197787357963387585031992906108700958938831269571) rotate(0.0) translate(-.5 -.5)"/>
    <use xlink:href="#one" transform="translate(-7.43197787357963387585031992906108700958938831269571 6.43184112216863771386824995579081208665736157038661) rotate(0.0) translate(-.5 -.5)"/>
    <use xlink:href="#one" transform="translate(-6.43197787357963387585031992906107700958938831269515 6.43184112216863771386824995579081208665736157038661) rotate(0.0) translate(-.5 -.5)"/>
    <use xlink:href="#one" transform="translate(-5.43197787357963387585031992906106700958938831269459 6.43187836133734994696324323623914592103404114965755) rotate(0.0) translate(-.5 -.5)"/>
    <use xlink:href="#one" transform="translate(-4.43197787357963387585031992906105700958938831269403 6.43197787357963387585031992906107700958938831269515) rotate(0.0) translate(-.5 -.5)"/>
    <use xlink:href="#one" transform="translate(-3.43197787357963387585031992906104700958938831269347 6.43197787357963387585031992906107700958938831269515) rotate(0.0) translate(-.5 -.5)"/>
    <use xlink:href="#one" transform="translate(-2.43197787357963387585031992906103700958938831269291 6.43197787357963387585031992906107700958938831269515) rotate(0.0) translate(-.5 -.5)"/>
    <use xlink:href="#one" transform="translate(-7.43197787357963387585031992906108700958938831269571 5.43183960775885613607142917186161863210584292774200) rotate(0.0) translate(-.5 -.5)"/>
    <use xlink:href="#one" transform="translate(-6.43197787357963387585031992906107700958938831269515 5.43183911947760781295228556575485527313014348553007) rotate(0.0) translate(-.5 -.5)"/>
    <use xlink:href="#one" transform="translate(-0.57680533869685594343995788098104800995208738548683 -7.43197787357963387585031992906108700958938831269571) rotate(0.0) translate(-.5 -.5)"/>
    <use xlink:href="#one" transform="translate(-4.43197787357963387585031992906105700958938831269403 5.43197787357963387585031992906106700958938831269459) rotate(0.0) translate(-.5 -.5)"/>
    <use xlink:href="#one" transform="translate(-3.43197787357963387585031992906104700958938831269347 5.43197787357963387585031992906106700958938831269459) rotate(0.0) translate(-.5 -.5)"/>
    <use xlink:href="#one" transform="translate(-2.43197787357963387585031992906103700958938831269291 5.43197787357963387585031992906106700958938831269459) rotate(0.0) translate(-.5 -.5)"/>
    <use xlink:href="#one" transform="translate(-7.43197787357963387585031992906108700958938831269571 4.43183056740514605912876762764189468529716492068128) rotate(0.0) translate(-.5 -.5)"/>
    <use xlink:href="#one" transform="translate(-6.43197787357963387585031992906107700958938831269515 4.43183886301772514919021235856620681394827176484915) rotate(0.0) translate(-.5 -.5)"/>
    <use xlink:href="#one" transform="translate(-5.43197787357963387585031992906106700958938831269459 4.43183960775885613607142917195311649711147897434345) rotate(0.0) translate(-.5 -.5)"/>
    <use xlink:href="#one" transform="translate(-4.43197787357963387585031992906105700958938831269403 4.43197787357963387585031992906105700958938831269403) rotate(0.0) translate(-.5 -.5)"/>
    <use xlink:href="#one" transform="translate(-3.43197787357963387585031992906104700958938831269347 4.43197787357963387585031992906105700958938831269403) rotate(0.0) translate(-.5 -.5)"/>
    <use xlink:href="#one" transform="translate(-2.43197787357963387585031992906103700958938831269291 4.43197787357963387585031992906105700958938831269403) rotate(0.0) translate(-.5 -.5)"/>
    <use xlink:href="#one" transform="translate(-7.43197787357963387585031992906108700958938831269571 3.43182978661756924402807529864512555209647255326884) rotate(0.0) translate(-.5 -.5)"/>
    <use xlink:href="#one" transform="translate(-6.43197787357963387585031992906107700958938831269515 3.43183849066413662607707362718537508216365176229411) rotate(0.0) translate(-.5 -.5)"/>
    <use xlink:href="#one" transform="translate(-5.43197787357963387585031992906106700958938831269459 3.43183886301772514919021235856619681394827176484859) rotate(0.0) translate(-.5 -.5)"/>
    <use xlink:href="#one" transform="translate(-4.43197787357963387585031992906105700958938831269403 3.43197787357963387585031992906104700958938831269347) rotate(0.0) translate(-.5 -.5)"/>
    <use xlink:href="#one" transform="translate(-3.43197787357963387585031992906104700958938831269347 3.43197787357963387585031992906104700958938831269347) rotate(0.0) translate(-.5 -.5)"/>
    <use xlink:href="#one" transform="translate(-2.43197787357963387585031992906103700958938831269291 3.43197787357963387585031992906104700958938831269347) rotate(0.0) translate(-.5 -.5)"/>
    <use xlink:href="#one" transform="translate(-7.43197787357963387585031992906108700958938831269571 2.43182939622873154298913763220885216090588164313785) rotate(0.0) translate(-.5 -.5)"/>
    <use xlink:href="#one" transform="translate(-6.43197787357963387585031992906107700958938831269515 2.43183849066413662607707362718536508216365176229355) rotate(0.0) translate(-.5 -.5)"/>
    <use xlink:href="#one" transform="translate(-5.43197787357963387585031992906106700958938831269459 2.43183849066413662607707362718536508216365176229355) rotate(0.0) translate(-.5 -.5)"/>
    <use xlink:href="#one" transform="translate(-4.43197787357963387585031992906105700958938831269403 2.43197787357963387585031992906103700958938831269291) rotate(0.0) translate(-.5 -.5)"/>
    <use xlink:href="#one" transform="translate(-3.43197787357963387585031992906104700958938831269347 2.43197787357963387585031992906103700958938831269291) rotate(0.0) translate(-.5 -.5)"/>
    <use xlink:href="#one" transform="translate(-2.43197787357963387585031992906103700958938831269291 2.43197787357963387585031992906103700958938831269291) rotate(0.0) translate(-.5 -.5)"/>
    <use xlink:href="#one" transform="translate(-7.43197787357963387585031992906108700958938831269571 1.43182895689710153114698736264551716545760448627008) rotate(0.0) translate(-.5 -.5)"/>
    <use xlink:href="#one" transform="translate(-6.43197787357963387585031992906107700958938831269515 1.43183849066413662607707362718535508216365176229299) rotate(0.0) translate(-.5 -.5)"/>
    <use xlink:href="#one" transform="translate(-5.43197787357963387585031992906106700958938831269459 1.43183849066413662607707362718535508216365176229299) rotate(0.0) translate(-.5 -.5)"/>
    <use xlink:href="#one" transform="translate(-4.43197787357963387585031992906105700958938831269403 1.43197787357963387585031992906102700958938831269235) rotate(0.0) translate(-.5 -.5)"/>
    <use xlink:href="#one" transform="translate(-3.43197787357963387585031992906104700958938831269347 1.43197787357963387585031992906102700958938831269235) rotate(0.0) translate(-.5 -.5)"/>
    <use xlink:href="#one" transform="translate(-2.43197787357963387585031992906103700958938831269291 1.43197787357963387585031992906102700958938831269235) rotate(0.0) translate(-.5 -.5)"/>
    <use xlink:href="#one" transform="translate(-7.43197787357963387585031992906108700958938831269571 0.43182895689710153114698736264550716545760448626952) rotate(0.0) translate(-.5 -.5)"/>
    <use xlink:href="#one" transform="translate(-6.43197787357963387585031992906107700958938831269515 0.43183849066413662607707362718534508216365176229243) rotate(0.0) translate(-.5 -.5)"/>
    <use xlink:href="#one" transform="translate(-5.43197787357963387585031992906106700958938831269459 0.43183849066413662607707362718534508216365176229243) rotate(0.0) translate(-.5 -.5)"/>
    <use xlink:href="#one" transform="translate(-4.43197787357963387585031992906105700958938831269403 0.43197787357963387585031992906101700958938831269179) rotate(0.0) translate(-.5 -.5)"/>
    <use xlink:href="#one" transform="translate(-3.43197787357963387585031992906104700958938831269347 0.43197787357963387585031992906101700958938831269179) rotate(0.0) translate(-.5 -.5)"/>
    <use xlink:href="#one" transform="translate(-2.43197787357963387585031992906103700958938831269291 0.43197787357963387585031992906101700958938831269179) rotate(0.0) translate(-.5 -.5)"/>
    <use xlink:href="#one" transform="translate(-7.43197787357963387585031992906108700958938831269571 -0.56817104310289846885301263735450283454239551373104) rotate(0.0) translate(-.5 -.5)"/>
    <use xlink:href="#one" transform="translate(-6.43197787357963387585031992906107700958938831269515 -0.56816150933586337392292637281466491783634823770813) rotate(0.0) translate(-.5 -.5)"/>
    <use xlink:href="#one" transform="translate(-5.43197787357963387585031992906106700958938831269459 -0.58560628850676063102427830139203455701667295558582) rotate(0.0) translate(-.5 -.5)"/>
    <use xlink:href="#one" transform="translate(-4.43197787357963387585031992906105700958938831269403 -0.56802212642036612414968007093899299041061168730877) rotate(0.0) translate(-.5 -.5)"/>
    <use xlink:href="#one" transform="translate(-3.43197787357963387585031992906104700958938831269347 -0.56802212642036612414968007093899299041061168730877) rotate(0.0) translate(-.5 -.5)"/>
    <use xlink:href="#one" transform="translate(-2.23000983511834073979224366003302176290095548972490 -0.82943325673078053044334208846912664149481256460375) rotate(-38.088267376017974595570063763353582115068056860407283) translate(-.5 -.5)"/>
    <use xlink:href="#one" transform="translate(-7.43197787357963387585031992906108700958938831269571 -1.56817104310289846885301263735451283454239551373160) rotate(0.0) translate(-.5 -.5)"/>
    <use xlink:href="#one" transform="translate(-6.43197787357963387585031992906107700958938831269515 -1.56816150933586337392292637281467491783634823770869) rotate(0.0) translate(-.5 -.5)"/>
    <use xlink:href="#one" transform="translate(-5.43197787357963387585031992906106700958938831269459 -1.59654825282091169576533244374182807969685933779964) rotate(0.0) translate(-.5 -.5)"/>
    <use xlink:href="#one" transform="translate(-4.43197787357963387585031992906105700958938831269403 -1.56802212642036612414968007093900299041061168730933) rotate(0.0) translate(-.5 -.5)"/>
    <use xlink:href="#one" transform="translate(-3.43197787357963387585031992906104700958938831269347 -1.56802212642036612414968007093900299041061168730933) rotate(0.0) translate(-.5 -.5)"/>
    <use xlink:href="#one" transform="translate(-1.44294522721692668031110613485303631510229981857305 -1.44631052336492111933464246402096531913756963079702) rotate(-38.088267376017974595570063763353582115068056860407283) translate(-.5 -.5)"/>
    <use xlink:href="#one" transform="translate(7.42532701766867068108849965816846203753541538490679 -7.43197787357963387585031992906108700958938831269571) rotate(0.0) translate(-.5 -.5)"/>
    <use xlink:href="#one" transform="translate(6.42404271488385295533744541779327504135627540561087 -7.43197787357963387585031992906108700958938831269571) rotate(0.0) translate(-.5 -.5)"/>
    <use xlink:href="#one" transform="translate(5.42319704185923204768342005869430175764450798857051 -7.43197787357963387585031992906108700958938831269571) rotate(0.0) translate(-.5 -.5)"/>
    <use xlink:href="#one" transform="translate(4.42319513370723830185097798555307771874144408609052 -7.43197787357963387585031992906108700958938831269571) rotate(0.0) translate(-.5 -.5)"/>
    <use xlink:href="#one" transform="translate(3.42319466130314405656004211901899199004791261451541 -7.43197787357963387585031992906108700958938831269571) rotate(0.0) translate(-.5 -.5)"/>
    <use xlink:href="#one" transform="translate(2.42319466130314405656004211901898199004791261451485 -7.43197787357963387585031992906108700958938831269571) rotate(0.0) translate(-.5 -.5)"/>
    <use xlink:href="#one" transform="translate(1.42319466130314405656004211901897199004791261451429 -7.43197787357963387585031992906108700958938831269571) rotate(0.0) translate(-.5 -.5)"/>
    <use xlink:href="#one" transform="translate(0.42319466130314405656004211901896199004791261451373 -7.43197787357963387585031992906108700958938831269571) rotate(0.0) translate(-.5 -.5)"/>
    <use xlink:href="#one" transform="translate(-5.43197787357963387585031992906106700958938831269459 5.43184112216863771386824995579080208665736157038605) rotate(0.0) translate(-.5 -.5)"/>
    <use xlink:href="#one" transform="translate(7.43197787357963387585031992906108700958938831269571 -6.43197787357963387585031992906107700958938831269515) rotate(0.0) translate(-.5 -.5)"/>
    <use xlink:href="#one" transform="translate(6.43197787357963387585031992906107700958938831269515 -6.43197787357963387585031992906107700958938831269515) rotate(0.0) translate(-.5 -.5)"/>
    <use xlink:href="#one" transform="translate(5.43197787357963387585031992906106700958938831269459 -6.43197787357963387585031992906107700958938831269515) rotate(0.0) translate(-.5 -.5)"/>
    <use xlink:href="#one" transform="translate(4.43197787357963387585031992906105700958938831269403 -6.43197787357963387585031992906107700958938831269515) rotate(0.0) translate(-.5 -.5)"/>
    <use xlink:href="#one" transform="translate(3.43197787357963387585031992906104700958938831269347 -6.43197787357963387585031992906107700958938831269515) rotate(0.0) translate(-.5 -.5)"/>
    <use xlink:href="#one" transform="translate(2.43197787357963387585031992906103700958938831269291 -6.43197787357963387585031992906107700958938831269515) rotate(0.0) translate(-.5 -.5)"/>
    <use xlink:href="#one" transform="translate(1.43197787357963387585031992906102700958938831269235 -6.43197787357963387585031992906107700958938831269515) rotate(0.0) translate(-.5 -.5)"/>
    <use xlink:href="#one" transform="translate(0.43197787357963387585031992906101700958938831269179 -6.43197787357963387585031992906107700958938831269515) rotate(0.0) translate(-.5 -.5)"/>
    <use xlink:href="#one" transform="translate(-0.56802212642036612414968007093899299041061168730877 -6.43197787357963387585031992906107700958938831269515) rotate(0.0) translate(-.5 -.5)"/>
    <use xlink:href="#one" transform="translate(7.43197787357963387585031992906108700958938831269571 -5.43197787357963387585031992906106700958938831269459) rotate(0.0) translate(-.5 -.5)"/>
    <use xlink:href="#one" transform="translate(6.43197787357963387585031992906107700958938831269515 -5.43197787357963387585031992906106700958938831269459) rotate(0.0) translate(-.5 -.5)"/>
    <use xlink:href="#one" transform="translate(5.43197787357963387585031992906106700958938831269459 -5.43197787357963387585031992906106700958938831269459) rotate(0.0) translate(-.5 -.5)"/>
    <use xlink:href="#one" transform="translate(4.43197787357963387585031992906105700958938831269403 -5.43197787357963387585031992906106700958938831269459) rotate(0.0) translate(-.5 -.5)"/>
    <use xlink:href="#one" transform="translate(3.43197787357963387585031992906104700958938831269347 -5.43197787357963387585031992906106700958938831269459) rotate(0.0) translate(-.5 -.5)"/>
    <use xlink:href="#one" transform="translate(2.43197787357963387585031992906103700958938831269291 -5.43197787357963387585031992906106700958938831269459) rotate(0.0) translate(-.5 -.5)"/>
    <use xlink:href="#one" transform="translate(1.43197787357963387585031992906102700958938831269235 -5.43197787357963387585031992906106700958938831269459) rotate(0.0) translate(-.5 -.5)"/>
    <use xlink:href="#one" transform="translate(0.43197787357963387585031992906101700958938831269179 -5.43197787357963387585031992906106700958938831269459) rotate(0.0) translate(-.5 -.5)"/>
    <use xlink:href="#one" transform="translate(-0.56802212642036612414968007093899299041061168730877 -5.43197787357963387585031992906106700958938831269459) rotate(0.0) translate(-.5 -.5)"/>
    <use xlink:href="#one" transform="translate(7.43197787357963387585031992906108700958938831269571 -4.43197787357963387585031992906105700958938831269403) rotate(0.0) translate(-.5 -.5)"/>
    <use xlink:href="#one" transform="translate(6.43197787357963387585031992906107700958938831269515 -4.43197787357963387585031992906105700958938831269403) rotate(0.0) translate(-.5 -.5)"/>
    <use xlink:href="#one" transform="translate(5.43197787357963387585031992906106700958938831269459 -4.43197787357963387585031992906105700958938831269403) rotate(0.0) translate(-.5 -.5)"/>
    <use xlink:href="#one" transform="translate(4.43037053023360575202941876220193244320983536658221 -4.43197787357963387585031992906105700958938831269403) rotate(0.0) translate(-.5 -.5)"/>
    <use xlink:href="#one" transform="translate(3.43032081586299445412051030750061800698271119171867 -4.43197787357963387585031992906105700958938831269403) rotate(0.0) translate(-.5 -.5)"/>
    <use xlink:href="#one" transform="translate(2.43031677201139065750949415693665269993543673818015 -4.43197787357963387585031992906105700958938831269403) rotate(0.0) translate(-.5 -.5)"/>
    <use xlink:href="#one" transform="translate(1.43031480045685858108454598429286199160273291160882 -4.43197787357963387585031992906105700958938831269403) rotate(0.0) translate(-.5 -.5)"/>
    <use xlink:href="#one" transform="translate(0.43031406333381236151695522296873655461259924077899 -4.43197787357963387585031992906105700958938831269403) rotate(0.0) translate(-.5 -.5)"/>
    <use xlink:href="#one" transform="translate(-0.55705152258015503380682361277401846383352374980447 0.40045092092721310611245525531643343274388186300790) rotate(-38.088267376017974595570063763353582115068056860407283) translate(-.5 -.5)"/>
    <use xlink:href="#one" transform="translate(7.43197787357963387585031992906108700958938831269571 -3.43197787357963387585031992906104700958938831269347) rotate(0.0) translate(-.5 -.5)"/>
    <use xlink:href="#one" transform="translate(6.43197787357963387585031992906107700958938831269515 -3.43197787357963387585031992906104700958938831269347) rotate(0.0) translate(-.5 -.5)"/>
    <use xlink:href="#one" transform="translate(5.43197787357963387585031992906106700958938831269459 -3.43197787357963387585031992906104700958938831269347) rotate(0.0) translate(-.5 -.5)"/>
    <use xlink:href="#one" transform="translate(4.41584612091918718938514106291022621276066409739658 -2.43197787357963387585031992906103700958938831269291) rotate(0.0) translate(-.5 -.5)"/>
    <use xlink:href="#one" transform="translate(3.43197787357963387585031992906104700958938831269347 -3.43197787357963387585031992906104700958938831269347) rotate(0.0) translate(-.5 -.5)"/>
    <use xlink:href="#one" transform="translate(2.43197787357963387585031992906103700958938831269291 -3.43197787357963387585031992906104700958938831269347) rotate(0.0) translate(-.5 -.5)"/>
    <use xlink:href="#one" transform="translate(1.43197787357963387585031992906102700958938831269235 -3.43197787357963387585031992906104700958938831269347) rotate(0.0) translate(-.5 -.5)"/>
    <use xlink:href="#one" transform="translate(0.43197787357963387585031992906101700958938831269179 -3.43197787357963387585031992906104700958938831269347) rotate(0.0) translate(-.5 -.5)"/>
    <use xlink:href="#one" transform="translate(-2.41186456109546702753237192582134525494878738366304 -3.56659546928385353942945745611939859297993298297674) rotate(-44.095848264134148153558678499177772985314374067436174) translate(-.5 -.5)"/>
    <use xlink:href="#one" transform="translate(7.43197787357963387585031992906108700958938831269571 -2.43197787357963387585031992906103700958938831269291) rotate(0.0) translate(-.5 -.5)"/>
    <use xlink:href="#one" transform="translate(6.41979989004570176184797932243584334778785731566842 -2.43197787357963387585031992906103700958938831269291) rotate(0.0) translate(-.5 -.5)"/>
    <use xlink:href="#one" transform="translate(5.41748055350267013700586434303460251252173797910161 -2.43197787357963387585031992906103700958938831269291) rotate(0.0) translate(-.5 -.5)"/>
    <use xlink:href="#one" transform="translate(4.43197787357963387585031992906105700958938831269403 -1.43197787357963387585031992906102700958938831269235) rotate(0.0) translate(-.5 -.5)"/>
    <use xlink:href="#one" transform="translate(3.41559624534696785140268078854914223946723064082764 -2.43197787357963387585031992906103700958938831269291) rotate(0.0) translate(-.5 -.5)"/>
    <use xlink:href="#one" transform="translate(2.41545494028171195914337917080754746022214873826815 -2.43197787357963387585031992906103700958938831269291) rotate(0.0) translate(-.5 -.5)"/>
    <use xlink:href="#one" transform="translate(1.41542248925212580338821029605948629336321461428104 -2.43197787357963387585031992906103700958938831269291) rotate(0.0) translate(-.5 -.5)"/>
    <use xlink:href="#one" transform="translate(0.41538477893722661697366023751579419459743959028861 -2.43197787357963387585031992906103700958938831269291) rotate(0.0) translate(-.5 -.5)"/>
    <use xlink:href="#one" transform="translate(-0.56802212642036612414968007093899299041061168730877 -3.43197787357963387585031992906104700958938831269347) rotate(0.0) translate(-.5 -.5)"/>
  </g>
  <rect id="outer" x="-7.93197787357963387585031992906108700958938831269571" y="-7.93197787357963387585031992906108700958938831269571" width="15.86395574715926775170063985812217401917877662539142" height="15.86395574715926775170063985812217401917877662539142" style="fill:none"/>
</svg>
